<svg height="512pt" viewBox="0 -48 512 512" width="512pt" xmlns="http://www.w3.org/2000/svg"><g fill="#1998f1"><path d="m32 288h32v32h-32zm0 0"/><path d="m96 288h32v32h-32zm0 0"/><path d="m16 160h32v32h-32zm0 0"/><path d="m80 160h32v32h-32zm0 0"/></g><path d="m192 128h-192v-32h192c17.671875 0 32-14.328125 32-32s-14.328125-32-32-32h-32v-32h32c35.347656 0 64 28.652344 64 64s-28.652344 64-64 64zm0 0" fill="#92c5ff"/><path d="m344 192h-200v-32h200c30.929688 0 56-25.070312 56-56s-25.070312-56-56-56h-24v-32h24c48.601562 0 88 39.398438 88 88s-39.398438 88-88 88zm0 0" fill="#92c5ff"/><path d="m416 416h-32v-32h32c35.347656 0 64-28.652344 64-64s-28.652344-64-64-64h-416v-32h416c53.019531 0 96 42.980469 96 96s-42.980469 96-96 96zm0 0" fill="#92c5ff"/><path d="m160 288h192v32h-192zm0 0" fill="#92c5ff"/></svg>